<svg height="512pt" viewBox="0 0 512 512" width="512pt" xmlns="http://www.w3.org/2000/svg"><path d="m202.667969 0c-110.933594 0-202.667969 91.734375-202.667969 202.667969 0 110.933593 91.734375 202.664062 202.667969 202.664062 110.933593 0 202.664062-91.730469 202.664062-202.664062 0-110.933594-91.730469-202.667969-202.664062-202.667969zm0 0" fill="#2196f3"/><path d="m505.601562 475.734375-145.066406-145.066406c27.730469-34.132813 44.796875-78.933594 44.796875-128 0-110.933594-91.730469-202.667969-202.664062-202.667969-110.933594 0-202.667969 91.734375-202.667969 202.667969 0 110.933593 91.734375 202.664062 202.667969 202.664062 49.066406 0 91.730469-17.066406 128-44.796875l145.066406 145.066406c4.265625 4.265626 10.664063 6.398438 14.933594 6.398438 4.265625 0 10.664062-2.132812 14.933593-6.398438 8.53125-8.535156 8.53125-21.335937 0-29.867187zm-473.601562-273.066406c0-93.867188 76.800781-170.667969 170.667969-170.667969 93.867187 0 170.664062 76.800781 170.664062 170.667969 0 93.867187-76.796875 170.664062-170.664062 170.664062-93.867188 0-170.667969-76.796875-170.667969-170.664062zm0 0"/></svg>